<svg xmlns="http://www.w3.org/2000/svg" width="14" height="16">
  <path d="M13 1.465H.996c-.55 0-.996.426-.996.945v11.18c0 .52.445.945.996.945H13c.55 0 1-.426 1-.945V2.41c0-.52-.45-.945-1-.945zM4.23 12.668H2.156V6.43h2.078v6.238zm-1.039-7.09c-.664 0-1.203-.504-1.203-1.121 0-.621.54-1.125 1.203-1.125.668 0 1.204.504 1.204 1.125S3.859 5.578 3.19 5.578zm8.82 7.09H9.939V9.633c0-.723-.02-1.653-1.083-1.653-1.082 0-1.246.786-1.246 1.598v3.09H5.535V6.43h1.992v.855h.024c.281-.492.96-1.012 1.969-1.012 2.097 0 2.492 1.293 2.492 2.977zm0 0"/>
</svg>