<?xml version="1.0" encoding="UTF-8"?>
<svg xmlns="http://www.w3.org/2000/svg" xmlns:xlink="http://www.w3.org/1999/xlink" width="14px" height="16px" viewBox="0 0 14 16" version="1.1">
<g id="surface1">
<path style=" stroke:none;fill-rule:nonzero;fill:rgb(0%,0%,0%);fill-opacity:1;" d="M 13 1.464844 L 0.996094 1.464844 C 0.445312 1.464844 0 1.890625 0 2.410156 L 0 13.589844 C 0 14.109375 0.445312 14.535156 0.996094 14.535156 L 13 14.535156 C 13.550781 14.535156 14 14.109375 14 13.589844 L 14 2.410156 C 14 1.890625 13.550781 1.464844 13 1.464844 Z M 4.230469 12.667969 L 2.15625 12.667969 L 2.15625 6.429688 L 4.234375 6.429688 L 4.234375 12.667969 Z M 3.191406 5.578125 C 2.527344 5.578125 1.988281 5.074219 1.988281 4.457031 C 1.988281 3.835938 2.527344 3.332031 3.191406 3.332031 C 3.859375 3.332031 4.394531 3.835938 4.394531 4.457031 C 4.394531 5.078125 3.859375 5.578125 3.191406 5.578125 Z M 12.011719 12.667969 L 9.9375 12.667969 L 9.9375 9.632812 C 9.9375 8.910156 9.917969 7.980469 8.855469 7.980469 C 7.773438 7.980469 7.609375 8.765625 7.609375 9.578125 L 7.609375 12.667969 L 5.535156 12.667969 L 5.535156 6.429688 L 7.527344 6.429688 L 7.527344 7.285156 L 7.550781 7.285156 C 7.832031 6.792969 8.511719 6.273438 9.519531 6.273438 C 11.617188 6.273438 12.011719 7.566406 12.011719 9.25 Z M 12.011719 12.667969 "/>
</g>
</svg>
